<?xml version="1.0" encoding="UTF-8"?>
<svg xmlns="http://www.w3.org/2000/svg" id="_レイヤー_1" version="1.1" viewBox="0 0 176.39 42.06">
  <defs>
    <style>
      .st0 {
        fill: #e85405;
      }

      .st1 {
        fill: #f5aa00;
      }

      .st2 {
        fill: #ec7800;
      }
    </style>
  </defs>
  <g>
    <path class="st2" d="M53.3,18.14c.45.24,1.41.82,2.05,1.42-.31.37-.56.74-.89,1.19-.65-.59-1.54-1.17-1.99-1.44l.82-1.18h0ZM52.51,25.83c1.24-1.58,2.04-3.79,2.17-4.18.21.21.51.5,1.25.86-.47,1.18-1.09,2.46-1.82,3.75.04.1.09.22.09.3,0,.05-.01.14-.13.14-.05,0-.09-.01-.17-.06l-1.39-.81ZM54.13,15.03c.55.33,1.51.94,2.08,1.44-.19.21-.44.46-.9,1.12-.22-.18-1.07-.87-2.01-1.36l.83-1.19h0ZM64.13,16.05v1.24h-1.42c.24.03.37.08.37.18,0,.14-.23.17-.36.17-.14.33-.22.49-.28.6h2.19v1.26h-8.93v-1.26h2.15c-.19-.4-.22-.45-.41-.76l.96-.19h-2.14v-1.24h3.05v-1.03l1.71.1c.06,0,.22.01.22.14,0,.15-.26.24-.35.27v.51h3.25ZM60.53,26.65c-.45,0-.67-.05-.87-.22-.31-.24-.35-.77-.35-.85v-1.23h-1.31v.9h-1.5v-5.25h7.02v4.28c.47.33.73.45,1.22.6-.17,1.44-.78,1.77-1.49,1.77h-2.73,0ZM59.31,21.7v-.67h-1.31v.67h1.31ZM58,22.61v.69h1.31v-.69h-1.31ZM58.98,17.3c.09.15.3.49.5.95h1.39c.14-.26.27-.5.44-.95h-2.32ZM62.08,21.7v-.67h-1.35v.67h1.35ZM60.73,22.61v.69h1.35v-.69h-1.35ZM62.77,25.41c.36,0,.59,0,.63-1.05h-2.67v.58c0,.35.04.47.51.47h1.53Z"></path>
    <path class="st2" d="M68.76,15.36c.15.01.32.05.32.19,0,.13-.12.17-.32.23v4.05c0,2.7-.13,5.11-1.78,7-.41-.32-.87-.63-1.49-.86,1.46-1.76,1.62-3.38,1.62-6.34v-4.36l1.65.09h0ZM72.59,16.03c.1,0,.3.03.3.19,0,.12-.1.14-.3.23v9.16h-1.67v-9.69l1.67.1ZM76.37,15.27c.1.01.28.01.28.19,0,.06-.04.1-.12.14-.06.04-.12.06-.17.1v11.1h-1.63v-11.63l1.63.1h0Z"></path>
    <path class="st2" d="M90.07,22.45v1.32h-4.88v1.74c0,1.35-.95,1.4-3.02,1.37-.06-.28-.23-1.05-.5-1.53.22.01,1.21.05,1.4.05.54,0,.55-.08.55-.74v-.9h-5.02v-1.32h5.02v-.94l.67.09c.42-.32.92-.72,1.14-.9h-4.52v-1.3h6.38l.46.91c-.68.73-1.65,1.47-2.55,2.13h4.89ZM83.79,17.39c-.22-.5-.73-1.3-1.27-1.88l1.37-.63c.39.41,1.04,1.35,1.28,1.87-.14.08-1.15.6-1.21.64h1.9c.67-.85,1.03-1.35,1.5-2.24l1.53.5c.08.03.21.08.21.19,0,.15-.21.18-.44.21-.45.71-.76,1.12-.92,1.35h2.2v3.25h-1.53v-2.03h-8.2v2.03h-1.5v-3.25h1.95c-.22-.37-.73-1.18-1.09-1.56l1.3-.67c.49.47,1.01,1.3,1.26,1.78-.46.22-.73.37-.83.45h2.5Z"></path>
    <path class="st2" d="M102.96,24.76v1.48h-9.64v.51h-1.63v-11.11h10.97v1.44h-9.34v7.69s9.64,0,9.64,0ZM94.94,17.58c1.35.85,2.06,1.35,3.13,2.22.22-.27,1.01-1.24,1.53-2.59l1.56.78c.06.04.14.09.14.18,0,.13-.17.14-.42.14-.59,1.05-1.17,1.86-1.67,2.49,1.3,1.21,1.64,1.54,2.37,2.37-.27.18-.5.36-1.21,1.18-.74-.98-1.32-1.62-2.15-2.42-1.24,1.28-2.58,2.06-3.41,2.56-.65-.87-1.07-1.1-1.26-1.22,1.01-.5,2.35-1.24,3.51-2.38-1.14-.96-1.94-1.48-3.11-2.18l.99-1.13h0Z"></path>
    <path class="st2" d="M114.55,16.68v10.07h-1.64v-.74h-5.85v.74h-1.65v-10.07h2.54c.09-.19.46-1.05.56-1.71l1.88.23c.17.03.23.09.23.17,0,.15-.18.19-.37.24-.24.54-.35.74-.53,1.07h4.83,0ZM107.05,19.35h5.85v-1.27h-5.85v1.27ZM112.91,20.71h-5.85v1.27h5.85v-1.27ZM112.91,23.34h-5.85v1.27h5.85v-1.27Z"></path>
    <path class="st2" d="M117.43,18.35c1,.45,1.78,1.14,2.01,1.33-.27.33-.59.76-.86,1.17-.78-.69-1.71-1.19-1.99-1.36l.83-1.14h0ZM116.72,25.93c1.62-2.33,2.31-4.22,2.37-4.37.44.47.72.77,1.15.98-.22.62-.68,1.54-.86,1.91-.17.33-.91,1.73-1.07,2.03.01.05.04.12.04.19,0,.15-.1.21-.17.21-.09,0-.13-.03-.24-.1l-1.23-.83h0ZM118.27,15.03c.74.32,1.88,1.15,2.27,1.46-.15.19-.81,1.06-.95,1.24-1.28-1.05-1.82-1.36-2.21-1.56l.89-1.14h0ZM126.33,16.63c.94.94,2.19,2.81,2.61,3.69-.24.12-1.26.63-1.46.73-.09-.21-.13-.3-.56-1.05-1.78.36-5.2.69-6.26.74-.08.17-.12.23-.23.23s-.17-.12-.21-.28l-.32-1.45c.23.01.44.03,1.19-.03.22-.37,1.14-2.05,1.85-4.22l1.48.47c.19.06.31.12.31.23s-.12.15-.31.22c-.17.35-.81,1.6-.95,1.87-.23.44-.62,1.16-.71,1.32.91-.06,2.15-.15,3.41-.32-.54-.78-.91-1.19-1.08-1.37l1.24-.8h0ZM122.54,26.14v.65h-1.56v-5.43h6.74v5.43h-1.59v-.65h-3.59ZM126.13,24.77v-2.08h-3.59v2.08h3.59Z"></path>
    <path class="st2" d="M133.5,17.94v1.45h-1.26v7.42h-1.51v-7.42h-1.26v-1.45h1.26v-2.86l1.51.09c.18.01.3.12.3.21,0,.12-.09.15-.3.26v2.31h1.26ZM140.65,16.32c-.18,3.79-.41,3.98-2.65,4.01-.05-.36-.23-.82-.56-1.26.22.03.51.04.76.04.67,0,.86-.17.96-1.48h-1.9c-.47,1.63-1.71,2.68-2.27,2.99h.27c.09.01.23.05.23.18s-.13.18-.23.23v.37h1.87c-.1,4.98-.63,5.24-2.2,5.19-.15-.58-.19-.65-.51-1.25-.39.89-.69,1.26-.94,1.51-.47-.45-.78-.67-1.22-.91,1.24-.91,1.54-2.74,1.6-3.2h-1.09v-1.35h1.18c.01-.3,0-.53,0-.85l.9.05c-.27-.49-.85-.81-1.21-.99,1.62-.56,2.08-1.87,2.11-1.99h-1.91v-1.32h2.2c.06-.63.06-.9.05-1.19l1.5.13c.12.01.22.09.22.18,0,.12-.14.18-.3.24-.01.39-.03.49-.04.64h3.17ZM135.13,22.75c-.14,1.01-.5,2.12-.69,2.54.15.03.56.06.68.06.32,0,.41-.12.5-.47.06-.26.21-1.07.21-2.13h-.69ZM139.59,20.68c.12.01.19.08.19.14s-.14.15-.24.22c0,.05-.01.32-.01.37h1.86c-.03,4.25-.12,5.39-2.05,5.26-.01-.54-.1-.78-.53-1.46.37.09.59.12.71.12.3,0,.37-.12.44-.36.03-.1.18-.78.19-2.28h-.74c-.22,2.24-.91,3.28-1.65,4.13-.35-.36-.67-.62-1.09-.83,1.13-1.03,1.39-1.82,1.56-3.29h-.8v-1.28h.85c0-.4,0-.54-.01-.85l1.33.12h.01Z"></path>
    <path class="st2" d="M146.77,17.13v1.1h-4.29v-1.1h4.29ZM146.6,22.14v4.5h-1.36v-.51h-1.08v.72h-1.36v-4.7h3.79,0ZM146.39,15.46v1.13h-3.47v-1.13h3.47ZM146.39,18.82v1.08h-3.47v-1.08h3.47ZM146.39,20.5v1.08h-3.47v-1.08h3.47ZM144.17,23.38v1.46h1.08v-1.46h-1.08ZM153.76,23.74c.05.04.1.09.1.18s-.08.14-.18.14c-.06,0-.12-.01-.17-.04-.17.3-.35.55-.78,1.03.18.31.3.42.41.42.15,0,.24-.12.45-1.01.44.44.63.55.94.67-.19.86-.42,1.81-1.16,1.81-.68,0-1.28-.81-1.48-1.08-.08.08-.53.46-1.18.94-.06-.08-.64-.71-.96-.87.62-.32,1-.59,1.58-1.08-.05-.12-.37-.86-.5-1.69h-1.17v.51c.68-.15.82-.19,1.01-.24-.19.45-.22.94-.23,1.08-.21.08-.39.13-.78.21v.81c0,1.06-.23,1.28-2.03,1.35-.08-.37-.18-.87-.42-1.26.15.03.31.05.58.05.51,0,.6-.09.6-.37v-.32c-.56.1-.71.12-.9.14-.03.06-.08.19-.19.19-.13,0-.17-.12-.19-.19l-.32-1.08c.28-.01.59-.03,1.6-.14v-.73h-1.46v-1.08h1.46v-.46c-.67.08-.85.09-1.09.1-.13-.28-.18-.37-.56-.83.49-.01,2.11-.14,2.95-.55l.72.64c.05.05.1.1.1.17,0,.09-.08.14-.15.14-.06,0-.14-.01-.21-.04-.18.06-.26.09-.49.14v.69h1.03c-.05-.45-.12-1.18-.12-1.63l1.08.17c.18.03.39.06.39.17,0,.12-.14.17-.24.19.01.17.05.95.06,1.1h2.4v1.08h-1.36l.86.59h0ZM151.24,17.77h2.04v.99h-2.04v.47h2.99v1.06h-1.24c.26.19.6.6.92,1.03-.3.15-.42.24-.91.63-.33-.58-.77-.98-.92-1.1l.82-.55h-6.01v-1.06h2.86v-.47h-2.04v-.99h2.04v-.47h-2.58v-1.01h1.42c-.12-.17-.24-.31-.59-.73l1.1-.59c.45.49.68.8.94,1.18-.13.05-.19.09-.28.14h1.31c.4-.74.5-1.08.58-1.3l1.33.33c.09.03.21.06.21.18,0,.08-.05.13-.12.15-.08.03-.12.04-.21.05-.08.15-.22.41-.32.58h1.45v1.01h-2.74v.47h0ZM151.89,23.15c.06.27.1.47.26.85.15-.21.35-.45.58-.85h-.83Z"></path>
    <path class="st2" d="M164.46,20.5h-6.51v-1.13c-.73.46-1.33.74-1.67.9-.09-.14-.54-.78-1.19-1.28,1.81-.58,4.45-2.44,5.33-4.1l1.86.27c.12.01.19.09.19.17,0,.12-.14.15-.3.19.74,1.09,3.28,2.73,5.2,3.29-.54.35-1.03,1.28-1.07,1.35-.81-.32-1.5-.72-1.86-.92v1.27h0ZM155.98,24.96c.41-.03,1.81-.12,1.97-.12.63-1.09.99-1.96,1.07-2.18h-3.04v-1.42h10.57v1.42h-3.01c1.54,1.33,2.23,2.24,2.93,3.18-.6.41-1.01.87-1.24,1.13-.59-.91-.65-1-.94-1.35-.78.12-2.61.35-3.43.44-.64.08-3.51.37-4.09.44-.08.19-.14.33-.3.33-.08,0-.14-.08-.18-.3l-.32-1.58h0ZM164.21,19.08c-1.44-.87-2.04-1.48-3.04-2.46-1,1.01-1.59,1.62-2.78,2.46h5.82ZM163.08,22.66h-1.99s.04.06.04.09c0,.14-.27.18-.37.19-.19.44-.72,1.36-.96,1.76,1.62-.14,1.8-.15,3.38-.32-.22-.24-.51-.5-1.03-.94l.92-.78h0Z"></path>
  </g>
  <g>
    <circle class="st0" cx="27.26" cy="6.02" r="2.79"></circle>
    <circle class="st1" cx="39.49" cy="11.79" r="2.79"></circle>
    <circle class="st2" cx="15.19" cy="11.65" r="2.79"></circle>
    <circle class="st1" cx="20.49" cy="25.85" r="2.79"></circle>
    <path class="st0" d="M35.93,11.46c-1.21-.76-2.56-1.36-4.02-1.77,1.74,2.3,2.77,5.17,2.77,8.28v.25c0,.26-.36.31-.44.07-1.61-4.8-6.15-8.27-11.5-8.27-.47,0-.93.03-1.39.08-.92.35-1.8.77-2.61,1.26-.06-.81-.4-1.55-.92-2.12,1.71-1.32,3.71-2.3,5.88-2.81.13,1.16.83,2.16,1.81,2.71.51.29,1.11.46,1.75.46s1.23-.17,1.75-.46c.98-.55,1.67-1.54,1.81-2.71,2.25.53,4.3,1.55,6.05,2.94-.51.56-.85,1.28-.93,2.09h-.01Z"></path>
    <path class="st2" d="M31.05,36.37c-1.21.31-2.48.47-3.79.47-8.51,0-15.41-6.9-15.41-15.41,0-2.4.55-4.67,1.53-6.7.53.31,1.15.49,1.81.49,1.93,0,3.51-1.54,3.57-3.46,1.27-.54,2.66-.85,4.12-.85h0c.12,0,.15.17.04.21-4.15,1.62-7.09,5.65-7.09,10.37,0,.37.02.74.05,1.1.03.26-.32.34-.42.11-.46-1.08-.75-2.24-.86-3.46-.38,1.19-.58,2.45-.58,3.76,0,4.1,1.99,7.74,5.05,10.01,2.33,2.28,5.52,3.69,9.04,3.69,1.01,0,1.99-.12,2.93-.33h0Z"></path>
    <path class="st1" d="M41.23,14.91c-.51.29-1.11.45-1.74.45-.44,0-.86-.08-1.26-.23-.1-.04-.19-.08-.29-.12.13.71.19,1.44.19,2.18,0,6.2-4.6,11.33-10.57,12.17-.13.02-.23.13-.24.26h0c0,.14.1.27.24.29.43.05.87.07,1.32.07,5.55,0,10.21-3.78,11.56-8.9.06.5.09,1,.09,1.51,0,7.28-5.9,13.17-13.17,13.17-1.85,0-3.62-.38-5.22-1.08,1.35.5,2.8.77,4.33.77,4.6,0,8.61-2.49,10.77-6.19.18-.3-.2-.62-.47-.4-2.46,2.06-5.64,3.3-9.1,3.3-4.76,0-8.97-2.34-11.55-5.93-.23-.32-.72-.09-.64.29.54,2.52,1.82,4.76,3.59,6.49.46.45.95.86,1.47,1.24,2.13,1.54,4.75,2.45,7.57,2.45,1.01,0,1.99-.12,2.93-.33,1.03-.26,2.03-.63,2.96-1.09,5.12-2.5,8.66-7.77,8.66-13.85,0-2.33-.52-4.53-1.44-6.51h0Z"></path>
  </g>
</svg>
